<?xml version="1.0" encoding="utf-8"?>
<!-- Generator: Adobe Illustrator 16.0.0, SVG Export Plug-In . SVG Version: 6.00 Build 0)  -->
<!DOCTYPE svg PUBLIC "-//W3C//DTD SVG 1.1//EN" "http://www.w3.org/Graphics/SVG/1.1/DTD/svg11.dtd">
<svg version="1.1" id="Layer_1" xmlns="http://www.w3.org/2000/svg" xmlns:xlink="http://www.w3.org/1999/xlink" x="0px" y="0px"
	 width="611.913px" height="375.059px" viewBox="0 208.471 611.913 375.059" enable-background="new 0 208.471 611.913 375.059"
	 xml:space="preserve">
<path fill="#FFFFFF" d="M493.247,344.072c-13.28,0-26.04,2.228-37.975,6.267c-9.253-20.515-20.067-44.517-32.729-72.693
	l8.078-22.216l27.767-0.508v-23.226H353.871c-9.144,12.509,3.702,12.454,49.987,22.718l-8.078,22.723H189.273
	c13.911-48.586,6.052-45.049,68.666-44.939v-23.728c-86.194,0.839-71.249-8.874-117.406,139.598
	c-7.062-1.316-14.339-2.038-21.787-2.038C53.269,346.03,0,399.305,0,464.782c0,65.479,53.269,118.747,118.747,118.747
	c65.484,0,118.752-53.269,118.752-118.747c0-48.996-29.835-91.157-72.29-109.272c2.583-8.127,5.361-16.806,8.341-26.078
	C347.273,512.672,282.102,482.965,375.584,486.68c0.447,0,0.876-0.006,1.322-0.012c11.071,54.095,59.033,94.909,116.341,94.909
	C558.731,581.577,612,528.309,612,462.83C612,397.353,558.731,344.072,493.247,344.072z M209.72,464.782
	c0,50.16-40.808,90.968-90.968,90.968s-90.974-40.808-90.974-90.968c0-50.159,40.808-90.967,90.968-90.967
	c4.522,0,8.965,0.343,13.311,0.985c-28.978,91.384-25.502,80.98-25.679,88.685c-0.141,6.499,5.104,11.652,11.701,12.099
	c11.824-1.199,9.162,0.76,38.709-93.397C188,396.605,209.72,428.191,209.72,464.782z M326.979,459.122L183.3,302.547l202.076-0.361
	L326.979,459.122z M374.507,462.408l-22.093-0.067l57.326-150.479l22.24,49.278C397.672,381.887,374.66,419.501,374.507,462.408z
	 M443.522,386.71l34.297,75.992l-75.533-0.215C402.408,430.811,418.804,402.909,443.522,386.71z M493.247,553.798
	c-41.946,0-77.344-28.556-87.81-67.246c94.683,0.092,103.128,4.944,104.45-11.481c-0.128-4.786-1.909-8.066-43.121-99.266
	c8.378-2.558,17.271-3.948,26.475-3.948c50.16,0,90.968,40.809,90.968,90.974C584.209,512.996,543.407,553.798,493.247,553.798z"/>
</svg>
