<?xml version="1.0" encoding="utf-8"?>
<!-- Generator: Adobe Illustrator 16.0.0, SVG Export Plug-In . SVG Version: 6.00 Build 0)  -->
<!DOCTYPE svg PUBLIC "-//W3C//DTD SVG 1.1//EN" "http://www.w3.org/Graphics/SVG/1.1/DTD/svg11.dtd">
<svg version="1.1" id="Layer_1" xmlns="http://www.w3.org/2000/svg" xmlns:xlink="http://www.w3.org/1999/xlink" x="0px" y="0px"
	 width="612px" height="792px" viewBox="0 0 612 792" enable-background="new 0 0 612 792" xml:space="preserve">
<path fill="#FFFFFF" d="M500.182,346.113c-20,0-38.746,5.27-54.982,14.474l-37.197-56.745l11.701-23.066h18.574
	c5.043,0,12.877-3.991,12.877-13.085c-1.646-14.492-14.376-15.116-34.56-7.258c-33.128,0-49.994,3.513-49.994,20.343h38.042
	l-6.457,12.705H214.524c5.514-13.348,10.765-26.861,15.6-40.6c-9.522,0-20.257-0.588-20.257-8.305c0-7.54,6.658-8.586,11.616-8.849
	h66.059v-13.421h-66.053c-14.106-0.19-25.502,5.698-25.502,19.088c0,9.945,3.525,18.959,17.711,22.76
	c-17.828,44.621-32.975,73.942-43.917,98.195c-16.916-10.294-36.757-16.23-58.005-16.23C50.031,346.113,0,396.187,0,457.932
	c0,61.738,50.031,111.77,111.776,111.77c61.738,0,111.812-50.031,111.812-111.77c0-35.809-16.842-67.657-43.029-88.122
	c8.39-18.177,16.763-36.39,24.786-54.774l83.838,117.773c-8.158,7.368-13.292,18.048-13.292,29.908
	c0,20.686,15.612,37.736,35.691,40.007v16.23h-10.783v10.862h30.704v-10.862h-10.783v-16.236
	c20.079-2.271,35.691-19.321,35.691-40.007c0-0.227,0.007-0.446,0-0.673h32.088c2.16,59.835,51.322,107.663,111.684,107.663
	c61.744,0,111.818-50.031,111.818-111.77C612,396.187,561.926,346.113,500.182,346.113z M205.302,457.932
	c0,51.634-41.898,93.482-93.526,93.482c-51.635,0-93.489-41.854-93.489-93.482c0-51.641,41.854-93.489,93.489-93.489
	c18.525,0,35.796,5.422,50.331,14.718c-6.475,14.021-12.521,26.842-18.917,40.686c-0.024,0.055-0.061,0.11-0.085,0.165
	c-6.359,10.808-14.669,18.647-23.109,25.545c-2.356-1.573-5.177-2.521-8.219-2.521c-8.207,0-14.847,6.684-14.847,14.896
	c0,8.2,6.64,14.847,14.847,14.847c8.207,0,14.89-6.646,14.89-14.847c0-0.141-0.037-0.288-0.042-0.416
	c9.712-7.748,20.318-17.308,28.396-31.292l0.166-0.294l0.128-0.251c5.618-12.98,11.438-25.839,17.319-38.666
	C192.603,404.148,205.302,429.547,205.302,457.932z M446.087,381.719l43.28,66.054c-0.942,1.01-1.756,2.16-2.393,3.402h-79.982
	C409.042,422.503,423.976,397.441,446.087,381.719z M211.048,304.338h181.641l-61.396,121.047c-3.323-1.353-6.879-2.264-10.575-2.68
	v-16.23h10.783v-10.863h-30.704v10.863h10.777v16.23c-4.773,0.538-9.296,1.958-13.421,4.026L211.048,304.338z M316.146,495.294
	c-17.999,0-32.588-14.584-32.588-32.583c0-18.005,14.59-32.589,32.588-32.589c17.999,0,32.59,14.584,32.59,32.589
	S334.152,495.294,316.146,495.294z M354.733,451.175c-2.179-7.313-6.407-13.788-11.995-18.709l59.597-117.479l33.679,51.377
	c-27.057,19.015-45.301,49.744-47.388,84.805h-33.893V451.175z M500.182,551.414c-50.258,0-91.213-39.651-93.36-89.376h79.101
	c1.793,6.199,7.491,10.74,14.26,10.74c8.207,0,14.89-6.646,14.89-14.847c0-8.213-6.683-14.896-14.89-14.896
	c-0.312,0-0.618,0.024-0.918,0.049l-43.997-67.148c13.329-7.313,28.647-11.487,44.921-11.487c51.641,0,93.525,41.849,93.525,93.489
	C593.714,509.56,551.822,551.414,500.182,551.414z"/>
<path fill="#FFFFFF" d="M316.146,432.974c-16.414,0-29.73,13.323-29.73,29.737s13.323,29.731,29.73,29.731
	c16.408,0,29.701-13.323,29.701-29.731C345.848,446.297,332.561,432.974,316.146,432.974z M316.146,467.784
	c-2.809,0-5.116-2.264-5.116-5.073c0-2.815,2.308-5.073,5.116-5.073c2.815,0,5.074,2.258,5.074,5.073
	C321.221,465.521,318.962,467.784,316.146,467.784z"/>
</svg>
